<svg id="Layer_1" enable-background="new 0 0 66 66" viewBox="0 0 66 66" xmlns="http://www.w3.org/2000/svg"><g><g><g><g><g><path d="m64 63h-26.5c-.6 0-1-.4-1-1s.4-1 1-1h25.5v-4.3h-60v4.3h25.5c.6 0 1 .4 1 1s-.4 1-1 1h-26.5c-.6 0-1-.4-1-1v-6.3c0-.6.4-1 1-1h62c.6 0 1 .4 1 1v6.3c0 .5-.4 1-1 1z"/></g></g><g><path d="m33 56.7h-28.9c-.6 0-1-.4-1-1v-6.7c0-.6.4-1 1-1h23.9c3.6 0 6 2 6 5v2.7c0 .5-.4 1-1 1zm-27.9-2h26.9v-1.7c0-2.7-2.8-3-4-3h-22.9z"/></g><g><path d="m61.9 56.7h-28.9c-.6 0-1-.4-1-1v-2.7c0-3.1 2.3-5 6-5h23.9c.6 0 1 .4 1 1v6.7c0 .5-.4 1-1 1zm-27.9-2h26.9v-4.7h-22.9c-1.2 0-4 .3-4 3z"/></g></g><g><path d="m33 64.7c-4.2 0-7.7-3.4-7.7-7.7v-1.4c0-.6.4-1 1-1h13.3c.6 0 1 .4 1 1v1.4c.1 4.3-3.4 7.7-7.6 7.7zm-5.7-8v.4c0 3.1 2.5 5.7 5.7 5.7s5.7-2.5 5.7-5.7v-.4z"/></g></g><g><g><g><g><path d="m13.1 45.4c-6.4 0-11.7-5-12.1-11.5-.2-4.8 2.4-9.3 6.6-11.4l-.3-6c0-.6.4-1 .9-1.1l8.3-.4c.6 0 1 .4 1.1.9l.3 6.3c4.2 1.8 7 5.9 7.3 10.5.2 3.2-.9 6.3-3.1 8.7s-5.1 3.8-8.3 4c-.3-.1-.5 0-.7 0zm-3.8-28.1.3 5.7c0 .4-.2.8-.6 1-3.8 1.7-6.3 5.6-6 9.8.1 2.7 1.3 5.2 3.3 7s4.6 2.7 7.3 2.6 5.2-1.3 7-3.3 2.7-4.6 2.6-7.3c-.2-4-2.8-7.5-6.6-8.9-.4-.1-.6-.5-.7-.9l-.3-6z"/></g><g><path d="m13.1 40.7c-1.8 0-3.6-.7-4.9-1.9-1.5-1.3-2.3-3.1-2.4-5.1s.6-3.9 1.9-5.3 3.1-2.3 5.1-2.4 3.9.6 5.3 1.9c1.5 1.3 2.3 3.1 2.4 5.1.2 4.1-2.9 7.6-7 7.8-.2-.1-.3-.1-.4-.1zm0-12.8c-.1 0-.2 0-.3 0-1.4.1-2.8.7-3.7 1.8-1 1.1-1.5 2.5-1.4 3.9s.7 2.8 1.8 3.7c1.1 1 2.5 1.5 3.9 1.4s2.8-.7 3.7-1.8c1-1.1 1.5-2.5 1.4-3.9s-.7-2.8-1.8-3.7c-1-.9-2.3-1.4-3.6-1.4z"/></g><g><path d="m12.7 22.6c-.5 0-1-.4-1-.9l-.1-2.7c0-.6.4-1 .9-1.1.5 0 1 .4 1.1.9l.1 2.6c.1.7-.3 1.2-1 1.2.1 0 .1 0 0 0z"/></g><g><path d="m11.4 22.7c-.5 0-1-.4-1-.9 0-.6.4-1 .9-1.1l2.6-.1c.6 0 1 .4 1.1.9 0 .6-.4 1-.9 1.1z"/></g><g><path d="m12.8 27.9c-.3 0-.5-.1-.7-.3-.4-.4-.4-1 0-1.4l4.2-4c.4-.4 1-.4 1.4 0s.4 1 0 1.4l-4.2 4c-.2.2-.5.3-.7.3z"/></g></g><g><g><g><path d="m52.9 45.5c-.3 0-.6 0-.8 0-6.6-.4-11.7-6.2-11.2-12.9.3-4.8 3.5-8.9 7.9-10.5l.4-5.8c0-.5.5-.9 1.1-.9l8.2.6c.3 0 .5.1.7.3s.3.5.2.7l-.4 6c4 2.3 6.3 6.7 6 11.3-.2 3.2-1.7 6.2-4.1 8.3-2.3 1.8-5 2.9-8 2.9zm-1.8-28.2-.4 5.5c0 .4-.3.8-.7.9-4 1.2-6.9 4.8-7.2 9-.2 2.7.7 5.3 2.5 7.3s4.2 3.2 6.9 3.4 5.3-.7 7.3-2.5 3.2-4.2 3.4-6.9c.3-4-1.9-7.8-5.5-9.7-.4-.2-.6-.6-.5-1l.4-5.7z"/></g><g><path d="m52.9 40.8c-.2 0-.3 0-.5 0-2-.1-3.8-1-5.1-2.5s-1.9-3.4-1.8-5.4 1-3.8 2.5-5.1 3.4-1.9 5.4-1.8 3.8 1 5.1 2.5 1.9 3.4 1.8 5.4c-.3 3.9-3.5 6.9-7.4 6.9zm0-12.8c-1.3 0-2.5.5-3.5 1.3-1.1.9-1.7 2.3-1.8 3.7s.4 2.8 1.3 3.9 2.3 1.7 3.7 1.8c3 .2 5.5-2.1 5.7-5 .1-1.4-.4-2.8-1.3-3.9s-2.3-1.7-3.7-1.8c-.1 0-.3 0-.4 0z"/></g></g><g><path d="m53.9 23.2c-.6 0-1-.5-1-1.1l.1-2.6c0-.6.5-1 1.1-.9.6 0 1 .5.9 1.1l-.1 2.6c0 .5-.4.9-1 .9z"/></g><g><path d="m55.2 23.3-2.7-.1c-.6 0-1-.5-.9-1.1s.5-1 1.1-.9l2.6.1c.6 0 1 .5.9 1.1 0 .5-.4.9-1 .9z"/></g><g><path d="m54 28.1c-.3 0-.5-.1-.7-.3-.4-.4-.3-1 .1-1.4l4-3.6c.4-.4 1-.3 1.4.1s.3 1-.1 1.4l-4 3.6c-.3.1-.5.2-.7.2z"/></g></g></g><g><path d="m51.4 17.3c-.4 0-.7-.2-.9-.6-.1-.3-.3-.6-.4-.9-1.1-3.2-.2-6.3 2.1-7.1 2.2-.8 4.9 1.2 5.9 4.4.4 1.1.5 2.2.4 3.3 0 .5-.5 1-1.1.9-.5 0-1-.5-.9-1.1.1-.8 0-1.6-.3-2.5-.8-2.2-2.4-3.4-3.4-3.1s-1.6 2.3-.8 4.5c.1.2.2.5.3.7.2.5 0 1.1-.5 1.3-.1.1-.2.2-.4.2z"/></g><g><path d="m12.8 17.2c-.6 0-1.1-.1-1.6-.4-1-.6-1.7-1.8-1.7-3.2-.1-1.3.3-2.8 1.1-4.1s1.8-2.4 3-3c1.3-.7 2.6-.7 3.7-.1 2.1 1.2 2.3 4.4.6 7.3-1.3 2.2-3.3 3.5-5.1 3.5zm2.8-9.3c-.4 0-.9.2-1.1.3-.8.4-1.6 1.2-2.2 2.2s-.9 2.1-.8 3c0 .4.1 1.3.7 1.6.9.5 2.8-.3 3.9-2.4 1.2-2.1 1-4.1.1-4.6-.2 0-.4-.1-.6-.1z"/></g><g><path d="m26.9 10.5c-1.1 0-2.1-.2-2.9-.6-1.3-.6-2.2-1.6-2.4-2.8s.4-2.4 1.5-3.4c1-.9 2.4-1.5 3.9-1.7 3.3-.5 6.2 1 6.6 3.3.3 2.3-2 4.6-5.3 5.1-.6 0-1 .1-1.4.1zm1.3-6.6c-.3 0-.7 0-1 .1-1.1.2-2.2.6-2.9 1.2-.3.3-.9.9-.8 1.6s.8 1.1 1.2 1.3c.8.4 2 .5 3.1.3 2.4-.3 3.8-1.8 3.7-2.8-.1-.9-1.5-1.7-3.3-1.7z"/></g><g><path d="m43.5 9.9c-.5 0-1.1-.1-1.7-.2-1.5-.3-2.9-1-3.8-1.9-1.1-1-1.5-2.3-1.3-3.4s1.1-2.2 2.5-2.7c1.2-.5 2.7-.6 4.2-.3s2.9 1 3.8 1.9c1.1 1 1.5 2.3 1.3 3.4-.4 2-2.5 3.2-5 3.2zm-1.3-2.1c2.3.5 4.2-.4 4.4-1.4.1-.7-.4-1.3-.7-1.6-.7-.6-1.7-1.1-2.8-1.4-1.1-.2-2.3-.1-3.1.2-.4.2-1.1.5-1.3 1.2-.1.7.4 1.3.7 1.6.6.6 1.6 1.1 2.8 1.4z"/></g><g><path d="m15.3 10.7c-.4 0-.8-.3-1-.7-.2-.5.1-1.1.6-1.3l9.1-3c.5-.2 1.1.1 1.3.6s-.1 1.1-.6 1.3l-9.1 3c-.1.1-.2.1-.3.1z"/></g><g><path d="m30.9 7.3c-.5 0-1-.4-1-.9 0-.6.4-1 .9-1.1l9.8-.7c.6 0 1 .4 1.1.9 0 .6-.4 1-.9 1.1z"/></g><g><path d="m52.7 11.9c-.2 0-.4-.1-.6-.2l-7-4.7c-.5-.3-.6-.9-.3-1.4s.9-.6 1.4-.3l7.1 4.7c.5.3.6.9.3 1.4-.2.4-.5.5-.9.5z"/></g><g><g><path d="m38.8 23.7h-11c-.6 0-1-.4-1-1v-8.1c0-.6.4-1 1-1h11c.6 0 1 .4 1 1v8.1c0 .5-.4 1-1 1zm-10-2h9v-6.1h-9z"/></g><g><path d="m25.9 25.5c-1.6 0-2.8-1.3-2.8-2.8v-8c0-1.6 1.3-2.8 2.8-2.8s2.8 1.3 2.8 2.8v8c.1 1.5-1.2 2.8-2.8 2.8zm0-11.7c-.5 0-.8.4-.8.8v8c0 .5.4.8.8.8s.8-.4.8-.8v-8c.1-.5-.3-.8-.8-.8z"/></g><g><path d="m40.6 25.5c-1.6 0-2.8-1.3-2.8-2.8v-8c0-1.6 1.3-2.8 2.8-2.8s2.8 1.3 2.8 2.8v8c.1 1.5-1.2 2.8-2.8 2.8zm0-11.7c-.5 0-.8.4-.8.8v8c0 .5.4.8.8.8s.8-.4.8-.8v-8c.1-.5-.3-.8-.8-.8z"/></g><g><path d="m33.3 45c-1 0-1.9-.4-2.6-1.1s-1-1.6-1-2.6l.6-18.6c0-.5.5-1 1-1h4c.5 0 1 .4 1 1l.6 18.6c0 1-.3 1.9-1 2.6s-1.6 1.1-2.6 1.1zm-1-21.3-.5 17.6c0 .4.1.8.4 1.2.6.6 1.7.6 2.3 0 .3-.3.5-.7.4-1.1l-.5-17.6h-2.1z"/></g></g></g></g></svg>