<svg id="Layer_1" enable-background="new 0 0 66 66" viewBox="0 0 66 66" xmlns="http://www.w3.org/2000/svg"><g><g><g><path d="m61.8 52.9h-19.6c-.6 0-1-.4-1-1s.4-1 1-1h18.5v-9.2c0-1.1-.8-2-1.8-2.1l-3.4-.5c-1.4-.1-2.5-1.4-2.5-2.8v-2c0-.6.4-1 1-1s1 .4 1 1v2c0 .5.3.9.8.9l3.4.5c2 .3 3.6 2.1 3.6 4.1v10.2c0 .5-.5.9-1 .9z"/></g><g><path d="m41.1 47.3c-.6 0-1-.4-1-1v-4.5c0-2.1 1.5-3.8 3.6-4.1l3.7-.5c.5-.1.8-.5.8-.9v-2c0-.6.4-1 1-1s1 .4 1 1v2c0 1.5-1.1 2.7-2.5 2.9l-3.7.5c-1.1.1-1.9 1.1-1.9 2.1v4.5c0 .6-.5 1-1 1z"/></g></g><g><path d="m51.4 35.7c-3.5 0-6.3-2.8-6.3-6.3v-3.7c0-2.5 2.1-4.6 4.6-4.6h3.3c2.5 0 4.6 2.1 4.6 4.6v3.7c.1 3.5-2.7 6.3-6.2 6.3zm-1.6-12.6c-1.4 0-2.6 1.2-2.6 2.6v3.7c0 2.4 1.9 4.3 4.3 4.3s4.3-1.9 4.3-4.3v-3.7c0-1.4-1.2-2.6-2.6-2.6z"/></g><g><path d="m56.4 29.4c-.7 0-2.3-.1-3.5-1.1-.1-.1-.3-.3-.4-.4-.1.1-.2.1-.2.2-1.4 1-3.6 1-6.5.2-.4-.1-.7-.5-.7-1v-1.5c0-2.6 2.1-4.6 4.6-4.6h3.3c2.6 0 4.6 2.1 4.6 4.6v2.7c0 .5-.4 1-.9 1 0-.1-.1-.1-.3-.1zm-3.6-4.7c.5 0 1 .4 1 .9s.2.9.5 1.1c.4.3.9.5 1.4.6v-1.6c0-1.5-1.2-2.6-2.6-2.6h-3.3c-1.5 0-2.6 1.2-2.6 2.6v.8c2.5.6 3.6.2 4.1-.1s.6-.8.6-.8c0-.5.4-.9.9-.9z"/></g><g><path d="m22.6 41.4c-.6 0-1-.4-1-1v-13.3c0-2.4-2-4.4-4.4-4.4h-5.2c-2.4 0-4.4 2-4.4 4.4v13.3c0 .6-.4 1-1 1s-1-.4-1-1v-13.3c0-3.5 2.9-6.4 6.4-6.4h5.2c3.5 0 6.4 2.9 6.4 6.4v13.3c0 .6-.5 1-1 1z"/></g><g><path d="m14.6 37.6c-3.5 0-6.3-2.8-6.3-6.3v-2.9c0-.5.4-1 .9-1 .3 0 1.4-.2 1.8-.8.2-.3.3-.7.2-1.2 0-.1 0-.1 0-.2-.1-.5.3-1 .8-1.1s1 .3 1.1.8v.1c.1.4 1 2.8 6.6 2.4.3 0 .5.1.8.3.2.2.3.5.3.7v2.9c.1 3.5-2.8 6.3-6.2 6.3zm-4.3-8.4v2.1c0 2.4 1.9 4.3 4.3 4.3s4.3-1.9 4.3-4.3v-1.9c-3.2 0-5.1-.8-6.2-1.8 0 0 0 0-.1.1-.6.9-1.6 1.3-2.3 1.5z"/></g><g><g><path d="m23.8 52.9h-19.6c-.6 0-1-.4-1-1v-8.3c0-2.1 1.5-3.8 3.6-4.1l3.7-.5c.5-.1.8-.5.8-.9v-2c0-.3.2-.7.5-.8.3-.2.7-.2 1-.1 1.3.6 2.7.6 3.9-.1.3-.2.7-.2 1 0s.5.5.5.9v2.2c0 .5.3.9.8.9l3.4.5c2 .3 3.6 2.1 3.6 4.1v2.7c0 .6-.4 1-1 1s-1-.4-1-1v-2.7c0-1.1-.8-2-1.8-2.1l-3.5-.6c-1.4-.2-2.5-1.5-2.5-2.9v-.7c-.9.2-1.9.3-2.8.1v.6c0 1.5-1.1 2.7-2.5 2.9l-3.7.5c-1.1.1-1.9 1.1-1.9 2.1v7.3h18.5c.6 0 1 .4 1 1s-.5 1-1 1z"/></g></g><g><g><g><g><path d="m64 64.9h-62c-.6 0-1-.4-1-1v-5.3c0-.6.4-1 1-1h62c.6 0 1 .4 1 1v5.3c0 .5-.4 1-1 1zm-61-2h60v-3.3h-60z"/></g></g><g><path d="m33 59.6h-29.9c-.6 0-1-.4-1-1v-6.7c0-.6.4-1 1-1h24.9c3.6 0 6 2 6 5v2.7c0 .6-.4 1-1 1zm-28.9-2h27.9v-1.7c0-2.7-2.8-3-4-3h-23.9z"/></g><g><path d="m62.9 59.6h-29.9c-.6 0-1-.4-1-1v-2.7c0-3 2.4-5 6-5h24.9c.6 0 1 .4 1 1v6.7c0 .6-.4 1-1 1zm-28.9-2h27.9v-4.7h-23.9c-1.2 0-4 .3-4 3z"/></g></g></g><g><path d="m37.9 28.1h-9.8c-.6 0-1-.4-1-1v-3.1c0-1.5 1.2-2.8 2.8-2.8h6.3c1.5 0 2.8 1.2 2.8 2.8v3.1c-.1.6-.5 1-1.1 1zm-8.8-2h7.8v-2.1c0-.4-.3-.8-.8-.8h-6.3c-.4 0-.8.3-.8.8v2.1z"/></g><g><path d="m35.4 23.3h-4.9c-.6 0-1-.4-1-1v-17.8c0-1.9 1.5-3.4 3.4-3.4s3.4 1.5 3.4 3.4v17.7c.1.6-.3 1.1-.9 1.1zm-3.8-2h2.9v-16.7c0-.8-.6-1.4-1.4-1.4s-1.4.6-1.4 1.4v16.7z"/></g><g><g><path d="m20.9 8.5c-1.6 0-3-1-3.5-2.5-.2-.5.1-1.1.6-1.3s1.1.1 1.3.6c.3.7.9 1.1 1.6 1.1s1.4-.5 1.7-1.2c.1-.4.5-.7.9-.7h6.7c.6 0 1 .4 1 1s-.4 1-1 1h-6.1c-.7 1.3-1.9 2-3.2 2z"/></g><g><path d="m45.1 8.5c-1.3 0-2.5-.7-3.2-1.8h-6.1c-.6 0-1-.4-1-1s.4-1 1-1h6.7c.4 0 .8.3.9.7.3.7.9 1.2 1.7 1.2.7 0 1.4-.5 1.6-1.2.2-.5.8-.8 1.3-.6s.8.8.6 1.3c-.5 1.4-1.9 2.4-3.5 2.4z"/></g><g><path d="m42 14.2c-.2 0-.3 0-.5-.1-.5-.3-.7-.9-.4-1.4l3.3-5.7c.2-.3.5-.5.9-.5s.7.2.9.6l2.8 5.7c.2.5 0 1.1-.5 1.3s-1.1 0-1.3-.5l-1.9-4-2.3 4.1c-.3.4-.6.5-1 .5z"/></g><g><path d="m45 18.6c-2.8 0-5.1-2.3-5.1-5.1 0-.6.4-1 1-1h8.1c.6 0 1 .4 1 1 .1 2.8-2.2 5.1-5 5.1zm-2.9-4.1c.4 1.2 1.6 2.1 2.9 2.1s2.5-.9 2.9-2.1z"/></g><g><path d="m17.9 14.2c-.2 0-.3 0-.5-.1-.5-.3-.7-.9-.4-1.4l3.3-5.7c.2-.3.5-.5.9-.5s.7.2.9.6l2.8 5.7c.2.5 0 1.1-.5 1.3s-1.1 0-1.3-.5l-1.9-4-2.3 4.1c-.3.4-.6.5-1 .5z"/></g><g><path d="m21 18.6c-2.8 0-5.1-2.3-5.1-5.1 0-.6.4-1 1-1h8.1c.6 0 1 .4 1 1 0 2.8-2.2 5.1-5 5.1zm-3-4.1c.4 1.2 1.6 2.1 2.9 2.1s2.5-.9 2.9-2.1z"/></g></g><g><path d="m14.7 52.9c-.4 0-.8-.3-.9-.7l-4.1-11.9c-.1-.4 0-.8.3-1.1s.8-.3 1.1-.1c2.1 1.3 4.8 1.3 6.9.1l.2-.1c.4-.2.8-.2 1.1.1s.4.7.3 1.1l-4.1 11.9c0 .5-.3.7-.8.7zm-2.4-11.1 2.4 7 2.4-7c-1.5.4-3.2.4-4.8 0z"/></g><g><path d="m9.4 46.8h-1.9c-.6 0-1-.4-1-1s.4-1 1-1h1.9c.6 0 1 .4 1 1s-.4 1-1 1z"/></g><g><g><path d="m42.2 52.9c-.6 0-1-.4-1-1v-2.9c0-.9-.7-1.7-1.6-1.8l-3.1-.4c-1.3-.2-2.3-1.4-2.3-2.7v-1.4c0-.6.4-1 1-1s1 .4 1 1v1.4c0 .4.3.7.6.7l3.1.4c1.9.3 3.3 1.9 3.3 3.8v2.9c0 .6-.4 1-1 1z"/></g><g><path d="m23.8 52.9c-.6 0-1-.4-1-1v-2.9c0-1.9 1.4-3.5 3.3-3.8l3.3-.5c.4 0 .6-.4.6-.7v-1.5c0-.6.4-1 1-1s1 .4 1 1v1.5c0 1.4-1 2.5-2.4 2.7l-3.3.5c-.9.1-1.6.9-1.6 1.8v2.9c.1.6-.4 1-.9 1z"/></g></g><g><path d="m33.5 43.7c-3.1 0-5.6-2.5-5.6-5.6v-3.3c0-2.3 1.9-4.1 4.1-4.1h2.9c2.3 0 4.1 1.9 4.1 4.1v3.3c.1 3.1-2.4 5.6-5.5 5.6zm-1.5-11c-1.2 0-2.1 1-2.1 2.1v3.3c0 2 1.6 3.6 3.6 3.6s3.6-1.6 3.6-3.6v-3.3c0-1.2-1-2.1-2.1-2.1z"/></g><g><path d="m37.8 38.2c-.6 0-2.1-.1-3.1-1-.1-.1-.2-.2-.3-.3 0 0-.1.1-.1.1-1.3.9-3.2.9-5.8.2-.4-.1-.7-.5-.7-1v-1.3c0-2.3 1.9-4.2 4.2-4.2h2.9c2.3 0 4.1 1.9 4.1 4.2v2.3c0 .5-.4 1-.9 1 0 0-.1 0-.3 0zm-3.1-4.4c.5 0 1 .4 1 1 0 .4.1.7.4.9s.6.4 1 .4v-1.2c0-1.2-1-2.2-2.1-2.2h-3c-1.2 0-2.2 1-2.2 2.2v.6c2 .5 3 .2 3.4-.1s.4-.6.4-.6c.1-.6.6-1 1.1-1z"/></g><g><path d="m33 50c-.2 0-.5-.1-.6-.2l-3.7-3.1c-.4-.4-.5-1-.1-1.4s1-.5 1.4-.1l3 2.5 3-2.5c.4-.4 1-.3 1.4.1s.3 1.1-.1 1.4l-3.6 3.1c-.2.1-.4.2-.7.2z"/></g><g><path d="m51.4 52.9c-.6 0-1-.4-1-1v-10.2l-3.5-2.7c-.4-.3-.5-1-.2-1.4s1-.5 1.4-.2l3.3 2.6 3.6-2.6c.4-.3 1.1-.2 1.4.2.1.2.2.4.2.6 0 .3-.1.6-.4.8l-3.8 2.7v10.2c0 .6-.4 1-1 1z"/></g><g><path d="m57.6 45.4h-1.9c-.6 0-1-.4-1-1s.4-1 1-1h1.9c.6 0 1 .4 1 1s-.4 1-1 1z"/></g></g></svg>